<svg id="my-svg" width="100%" xmlns="http://www.w3.org/2000/svg" xmlns:xlink="http://www.w3.org/1999/xlink" class="flowchart" style="max-width: 421.761px; background-color: white;" viewBox="0 0 421.76123046875 598" role="graphics-document document" aria-roledescription="flowchart-v2"><style>#my-svg{font-family:"trebuchet ms",verdana,arial,sans-serif;font-size:16px;fill:#333;}@keyframes edge-animation-frame{from{stroke-dashoffset:0;}}@keyframes dash{to{stroke-dashoffset:0;}}#my-svg .edge-animation-slow{stroke-dasharray:9,5!important;stroke-dashoffset:900;animation:dash 50s linear infinite;stroke-linecap:round;}#my-svg .edge-animation-fast{stroke-dasharray:9,5!important;stroke-dashoffset:900;animation:dash 20s linear infinite;stroke-linecap:round;}#my-svg .error-icon{fill:#552222;}#my-svg .error-text{fill:#552222;stroke:#552222;}#my-svg .edge-thickness-normal{stroke-width:1px;}#my-svg .edge-thickness-thick{stroke-width:3.5px;}#my-svg .edge-pattern-solid{stroke-dasharray:0;}#my-svg .edge-thickness-invisible{stroke-width:0;fill:none;}#my-svg .edge-pattern-dashed{stroke-dasharray:3;}#my-svg .edge-pattern-dotted{stroke-dasharray:2;}#my-svg .marker{fill:#333333;stroke:#333333;}#my-svg .marker.cross{stroke:#333333;}#my-svg svg{font-family:"trebuchet ms",verdana,arial,sans-serif;font-size:16px;}#my-svg p{margin:0;}#my-svg .label{font-family:"trebuchet ms",verdana,arial,sans-serif;color:#333;}#my-svg .cluster-label text{fill:#333;}#my-svg .cluster-label span{color:#333;}#my-svg .cluster-label span p{background-color:transparent;}#my-svg .label text,#my-svg span{fill:#333;color:#333;}#my-svg .node rect,#my-svg .node circle,#my-svg .node ellipse,#my-svg .node polygon,#my-svg .node path{fill:#ECECFF;stroke:#9370DB;stroke-width:1px;}#my-svg .rough-node .label text,#my-svg .node .label text,#my-svg .image-shape .label,#my-svg .icon-shape .label{text-anchor:middle;}#my-svg .node .katex path{fill:#000;stroke:#000;stroke-width:1px;}#my-svg .rough-node .label,#my-svg .node .label,#my-svg .image-shape .label,#my-svg .icon-shape .label{text-align:center;}#my-svg .node.clickable{cursor:pointer;}#my-svg .root .anchor path{fill:#333333!important;stroke-width:0;stroke:#333333;}#my-svg .arrowheadPath{fill:#333333;}#my-svg .edgePath .path{stroke:#333333;stroke-width:1px;}#my-svg .flowchart-link{stroke:#333333;fill:none;}#my-svg .edgeLabel{background-color:rgba(232,232,232, 0.8);text-align:center;}#my-svg .edgeLabel p{background-color:rgba(232,232,232, 0.8);}#my-svg .edgeLabel rect{opacity:0.5;background-color:rgba(232,232,232, 0.8);fill:rgba(232,232,232, 0.8);}#my-svg .labelBkg{background-color:rgba(232, 232, 232, 0.5);}#my-svg .cluster rect{fill:#ffffde;stroke:#aaaa33;stroke-width:1px;}#my-svg .cluster text{fill:#333;}#my-svg .cluster span{color:#333;}#my-svg div.mermaidTooltip{position:absolute;text-align:center;max-width:200px;padding:2px;font-family:"trebuchet ms",verdana,arial,sans-serif;font-size:12px;background:hsl(80, 100%, 96.2745098039%);border:1px solid #aaaa33;border-radius:2px;pointer-events:none;z-index:100;}#my-svg .flowchartTitleText{text-anchor:middle;font-size:18px;fill:#333;}#my-svg rect.text{fill:none;stroke-width:0;}#my-svg .icon-shape,#my-svg .image-shape{background-color:rgba(232,232,232, 0.8);text-align:center;}#my-svg .icon-shape p,#my-svg .image-shape p{background-color:rgba(232,232,232, 0.8);padding:2px;}#my-svg .icon-shape .label rect,#my-svg .image-shape .label rect{opacity:0.5;background-color:rgba(232,232,232, 0.8);fill:rgba(232,232,232, 0.8);}#my-svg .label-icon{display:inline-block;height:1em;overflow:visible;vertical-align:-0.125em;}#my-svg .node .label-icon path{fill:currentColor;stroke:revert;stroke-width:revert;}#my-svg .node .neo-node{stroke:#9370DB;}#my-svg [data-look="neo"].node rect,#my-svg [data-look="neo"].cluster rect,#my-svg [data-look="neo"].node polygon{stroke:#9370DB;filter:drop-shadow(1px 2px 2px rgba(185, 185, 185, 1));}#my-svg [data-look="neo"].swimlane.cluster rect{filter:none;}#my-svg [data-look="neo"].node path{stroke:#9370DB;stroke-width:1px;}#my-svg [data-look="neo"].node .outer-path{filter:drop-shadow(1px 2px 2px rgba(185, 185, 185, 1));}#my-svg [data-look="neo"].node .neo-line path{stroke:#9370DB;filter:none;}#my-svg [data-look="neo"].node circle{stroke:#9370DB;filter:drop-shadow(1px 2px 2px rgba(185, 185, 185, 1));}#my-svg [data-look="neo"].node circle .state-start{fill:#000000;}#my-svg [data-look="neo"].icon-shape .icon{fill:#9370DB;filter:drop-shadow(1px 2px 2px rgba(185, 185, 185, 1));}#my-svg [data-look="neo"].icon-shape .icon-neo path{stroke:#9370DB;filter:drop-shadow(1px 2px 2px rgba(185, 185, 185, 1));}#my-svg :root{--mermaid-font-family:"trebuchet ms",verdana,arial,sans-serif;}#my-svg .external&gt;*{fill:rgb(248, 250, 252)!important;stroke:rgb(100, 116, 139)!important;stroke-width:1.5px!important;color:rgb(15, 23, 42)!important;}#my-svg .external span{fill:rgb(248, 250, 252)!important;stroke:rgb(100, 116, 139)!important;stroke-width:1.5px!important;color:rgb(15, 23, 42)!important;}#my-svg .external tspan{fill:rgb(15, 23, 42)!important;}#my-svg .operator&gt;*{fill:rgb(243, 232, 255)!important;stroke:rgb(124, 58, 237)!important;stroke-width:1.5px!important;color:rgb(76, 29, 149)!important;}#my-svg .operator span{fill:rgb(243, 232, 255)!important;stroke:rgb(124, 58, 237)!important;stroke-width:1.5px!important;color:rgb(76, 29, 149)!important;}#my-svg .operator tspan{fill:rgb(76, 29, 149)!important;}#my-svg .platformPod&gt;*{fill:rgb(219, 234, 254)!important;stroke:rgb(37, 99, 235)!important;stroke-width:1.5px!important;color:rgb(23, 37, 84)!important;}#my-svg .platformPod span{fill:rgb(219, 234, 254)!important;stroke:rgb(37, 99, 235)!important;stroke-width:1.5px!important;color:rgb(23, 37, 84)!important;}#my-svg .platformPod tspan{fill:rgb(23, 37, 84)!important;}#my-svg .k8sResource&gt;*{fill:rgb(254, 243, 199)!important;stroke:rgb(217, 119, 6)!important;stroke-width:1.5px!important;color:rgb(120, 53, 15)!important;}#my-svg .k8sResource span{fill:rgb(254, 243, 199)!important;stroke:rgb(217, 119, 6)!important;stroke-width:1.5px!important;color:rgb(120, 53, 15)!important;}#my-svg .k8sResource tspan{fill:rgb(120, 53, 15)!important;}</style><g><marker id="my-svg_flowchart-v2-pointEnd" class="marker flowchart-v2" viewBox="0 0 10 10" refX="5" refY="5" markerUnits="userSpaceOnUse" markerWidth="8" markerHeight="8" orient="auto"><path d="M 0 0 L 10 5 L 0 10 z" class="arrowMarkerPath" style="stroke-width: 1; stroke-dasharray: 1, 0;"/></marker><marker id="my-svg_flowchart-v2-pointStart" class="marker flowchart-v2" viewBox="0 0 10 10" refX="4.5" refY="5" markerUnits="userSpaceOnUse" markerWidth="8" markerHeight="8" orient="auto"><path d="M 0 5 L 10 10 L 10 0 z" class="arrowMarkerPath" style="stroke-width: 1; stroke-dasharray: 1, 0;"/></marker><marker id="my-svg_flowchart-v2-pointEnd-margin" class="marker flowchart-v2" viewBox="0 0 11.5 14" refX="11.5" refY="7" markerUnits="userSpaceOnUse" markerWidth="10.5" markerHeight="14" orient="auto"><path d="M 0 0 L 11.5 7 L 0 14 z" class="arrowMarkerPath" style="stroke-width: 0; stroke-dasharray: 1, 0;"/></marker><marker id="my-svg_flowchart-v2-pointStart-margin" class="marker flowchart-v2" viewBox="0 0 11.5 14" refX="1" refY="7" markerUnits="userSpaceOnUse" markerWidth="11.5" markerHeight="14" orient="auto"><polygon points="0,7 11.5,14 11.5,0" class="arrowMarkerPath" style="stroke-width: 0; stroke-dasharray: 1, 0;"/></marker><marker id="my-svg_flowchart-v2-circleEnd" class="marker flowchart-v2" viewBox="0 0 10 10" refX="11" refY="5" markerUnits="userSpaceOnUse" markerWidth="11" markerHeight="11" orient="auto"><circle cx="5" cy="5" r="5" class="arrowMarkerPath" style="stroke-width: 1; stroke-dasharray: 1, 0;"/></marker><marker id="my-svg_flowchart-v2-circleStart" class="marker flowchart-v2" viewBox="0 0 10 10" refX="-1" refY="5" markerUnits="userSpaceOnUse" markerWidth="11" markerHeight="11" orient="auto"><circle cx="5" cy="5" r="5" class="arrowMarkerPath" style="stroke-width: 1; stroke-dasharray: 1, 0;"/></marker><marker id="my-svg_flowchart-v2-circleEnd-margin" class="marker flowchart-v2" viewBox="0 0 10 10" refY="5" refX="12.25" markerUnits="userSpaceOnUse" markerWidth="14" markerHeight="14" orient="auto"><circle cx="5" cy="5" r="5" class="arrowMarkerPath" style="stroke-width: 0; stroke-dasharray: 1, 0;"/></marker><marker id="my-svg_flowchart-v2-circleStart-margin" class="marker flowchart-v2" viewBox="0 0 10 10" refX="-2" refY="5" markerUnits="userSpaceOnUse" markerWidth="14" markerHeight="14" orient="auto"><circle cx="5" cy="5" r="5" class="arrowMarkerPath" style="stroke-width: 0; stroke-dasharray: 1, 0;"/></marker><marker id="my-svg_flowchart-v2-crossEnd" class="marker cross flowchart-v2" viewBox="0 0 11 11" refX="12" refY="5.2" markerUnits="userSpaceOnUse" markerWidth="11" markerHeight="11" orient="auto"><path d="M 1,1 l 9,9 M 10,1 l -9,9" class="arrowMarkerPath" style="stroke-width: 2; stroke-dasharray: 1, 0;"/></marker><marker id="my-svg_flowchart-v2-crossStart" class="marker cross flowchart-v2" viewBox="0 0 11 11" refX="-1" refY="5.2" markerUnits="userSpaceOnUse" markerWidth="11" markerHeight="11" orient="auto"><path d="M 1,1 l 9,9 M 10,1 l -9,9" class="arrowMarkerPath" style="stroke-width: 2; stroke-dasharray: 1, 0;"/></marker><marker id="my-svg_flowchart-v2-crossEnd-margin" class="marker cross flowchart-v2" viewBox="0 0 15 15" refX="17.7" refY="7.5" markerUnits="userSpaceOnUse" markerWidth="12" markerHeight="12" orient="auto"><path d="M 1,1 L 14,14 M 1,14 L 14,1" class="arrowMarkerPath" style="stroke-width: 2.5;"/></marker><marker id="my-svg_flowchart-v2-crossStart-margin" class="marker cross flowchart-v2" viewBox="0 0 15 15" refX="-3.5" refY="7.5" markerUnits="userSpaceOnUse" markerWidth="12" markerHeight="12" orient="auto"><path d="M 1,1 L 14,14 M 1,14 L 14,1" class="arrowMarkerPath" style="stroke-width: 2.5; stroke-dasharray: 1, 0;"/></marker><g class="root"><g class="clusters"/><g class="edgePaths"><path d="M125.516,110L125.516,116.167C125.516,122.333,125.516,134.667,125.516,146.333C125.516,158,125.516,169,125.516,174.5L125.516,180" id="my-svg-L_Hardware_Inventory_0" class="edge-thickness-normal edge-pattern-solid edge-thickness-normal edge-pattern-solid flowchart-link" style="stroke:#D97706;stroke-width:3px;fill:none;;;stroke:#D97706;stroke-width:3px;fill:none" data-edge="true" data-et="edge" data-id="L_Hardware_Inventory_0" data-points="W3sieCI6MTI1LjUxNTYyNSwieSI6MTEwfSx7IngiOjEyNS41MTU2MjUsInkiOjE0N30seyJ4IjoxMjUuNTE1NjI1LCJ5IjoxODR9XQ==" data-look="classic" marker-end="url(#my-svg_flowchart-v2-pointEnd__D97706)"/><path d="M125.516,262L125.516,268.167C125.516,274.333,125.516,286.667,134.206,298.63C142.897,310.593,160.278,322.187,168.968,327.984L177.659,333.78" id="my-svg-L_Inventory_ControlPlane_0" class="edge-thickness-normal edge-pattern-solid edge-thickness-normal edge-pattern-solid flowchart-link" style="stroke:#D97706;stroke-width:3px;fill:none;;;stroke:#D97706;stroke-width:3px;fill:none" data-edge="true" data-et="edge" data-id="L_Inventory_ControlPlane_0" data-points="W3sieCI6MTI1LjUxNTYyNSwieSI6MjYyfSx7IngiOjEyNS41MTU2MjUsInkiOjI5OX0seyJ4IjoxODAuOTg2NTYyMzc3NTI4MTQsInkiOjMzNn1d" data-look="classic" marker-end="url(#my-svg_flowchart-v2-pointEnd__D97706)"/><path d="M353.896,243L353.813,252.333C353.73,261.667,353.563,280.333,344.789,295.463C336.015,310.593,318.634,322.187,309.944,327.984L301.253,333.78" id="my-svg-L_Operator_ControlPlane_0" class="edge-thickness-normal edge-pattern-solid edge-thickness-normal edge-pattern-solid flowchart-link" style="stroke:#D97706;stroke-width:3px;fill:none;;;stroke:#D97706;stroke-width:3px;fill:none" data-edge="true" data-et="edge" data-id="L_Operator_ControlPlane_0" data-points="W3sieCI6MzUzLjg5NjIzMjYwNDk4MDQ3LCJ5IjoyNDN9LHsieCI6MzUzLjM5NjIzMjYwNDk4MDQ3LCJ5IjoyOTl9LHsieCI6Mjk3LjkyNTI5NTIyNzQ1MjM1LCJ5IjozMzZ9XQ==" data-look="classic" marker-end="url(#my-svg_flowchart-v2-pointEnd__D97706)"/><path d="M239.456,414L239.456,420.167C239.456,426.333,239.456,438.667,239.456,450.333C239.456,462,239.456,473,239.456,478.5L239.456,484" id="my-svg-L_ControlPlane_ResourceView_0" class="edge-thickness-normal edge-pattern-solid edge-thickness-normal edge-pattern-solid flowchart-link" style="stroke:#D97706;stroke-width:3px;fill:none;;;stroke:#D97706;stroke-width:3px;fill:none" data-edge="true" data-et="edge" data-id="L_ControlPlane_ResourceView_0" data-points="W3sieCI6MjM5LjQ1NTkyODgwMjQ5MDIzLCJ5Ijo0MTR9LHsieCI6MjM5LjQ1NTkyODgwMjQ5MDIzLCJ5Ijo0NTF9LHsieCI6MjM5LjQ1NTkyODgwMjQ5MDIzLCJ5Ijo0ODh9XQ==" data-look="classic" marker-end="url(#my-svg_flowchart-v2-pointEnd__D97706)"/></g><g class="edgeLabels"><g class="edgeLabel" transform="translate(125.515625, 147)"><g class="label" data-id="L_Hardware_Inventory_0" transform="translate(-40, -12)"><foreignObject width="80" height="24"><div xmlns="http://www.w3.org/1999/xhtml" class="labelBkg" style="display: table-cell; white-space: nowrap; line-height: 1.5; max-width: 200px; text-align: center;"><span class="edgeLabel"><p>发现与上报</p></span></div></foreignObject></g></g><g class="edgeLabel" transform="translate(125.515625, 299)"><g class="label" data-id="L_Inventory_ControlPlane_0" transform="translate(-40, -12)"><foreignObject width="80" height="24"><div xmlns="http://www.w3.org/1999/xhtml" class="labelBkg" style="display: table-cell; white-space: nowrap; line-height: 1.5; max-width: 200px; text-align: center;"><span class="edgeLabel"><p>待审核资源</p></span></div></foreignObject></g></g><g class="edgeLabel" transform="translate(348.95534, 301.96214)"><g class="label" data-id="L_Operator_ControlPlane_0" transform="translate(-40, -12)"><foreignObject width="80" height="24"><div xmlns="http://www.w3.org/1999/xhtml" class="labelBkg" style="display: table-cell; white-space: nowrap; line-height: 1.5; max-width: 200px; text-align: center;"><span class="edgeLabel"><p>核对与批准</p></span></div></foreignObject></g></g><g class="edgeLabel" transform="translate(239.45592880249023, 451)"><g class="label" data-id="L_ControlPlane_ResourceView_0" transform="translate(-40.3125, -12)"><foreignObject width="80.625" height="24"><div xmlns="http://www.w3.org/1999/xhtml" class="labelBkg" style="display: table-cell; white-space: nowrap; line-height: 1.5; max-width: 200px; text-align: center;"><span class="edgeLabel"><p>标记 active</p></span></div></foreignObject></g></g></g><g class="nodes"><g class="node default external" id="my-svg-flowchart-Hardware-0" data-look="classic" transform="translate(125.515625, 59)"><rect class="basic label-container" style="fill:#F8FAFC !important;stroke:#64748B !important;stroke-width:1.5px !important" x="-78" y="-51" width="156" height="102"/><g class="label" style="color:#0F172A !important" transform="translate(-48, -36)"><rect/><foreignObject width="96" height="72"><div style="color: rgb(15, 23, 42) !important; display: table-cell; white-space: nowrap; line-height: 1.5; max-width: 200px; text-align: center;" xmlns="http://www.w3.org/1999/xhtml"><span style="color:#0F172A !important" class="nodeLabel"><p>多机异构算力<br />CPU · GPU<br />网络 · 存储</p></span></div></foreignObject></g></g><g class="node default k8sResource" id="my-svg-flowchart-Inventory-1" data-look="classic" transform="translate(125.515625, 223)"><rect class="basic label-container" style="fill:#FEF3C7 !important;stroke:#D97706 !important;stroke-width:1.5px !important" x="-117.515625" y="-39" width="235.03125" height="78"/><g class="label" style="color:#78350F !important" transform="translate(-87.515625, -24)"><rect/><foreignObject width="175.03125" height="48"><div style="color: rgb(120, 53, 15) !important; display: table-cell; white-space: nowrap; line-height: 1.5; max-width: 200px; text-align: center;" xmlns="http://www.w3.org/1999/xhtml"><span style="color:#78350F !important" class="nodeLabel"><p>待审核资源清单<br />逐设备身份 · 类型 · 数量</p></span></div></foreignObject></g></g><g class="node default operator" id="my-svg-flowchart-Operator-2" data-look="classic" transform="translate(353.39623260498047, 223)"><g class="basic label-container outer-path"><path d="M-40.875 -19.5 C-17.884506294294763 -19.5, 5.105987411410474 -19.5, 40.875 -19.5 C40.875 -19.5, 40.875 -19.5, 40.875 -19.5 C41.34870532786204 -19.48480919214695, 41.822410655724084 -19.469618384293902, 42.1243692896239 -19.45993515863156 C42.48070337209154 -19.42556003825034, 42.83703745455917 -19.39118491786912, 43.368604652847864 -19.3399052695533 C43.68863735668311 -19.288164863887904, 44.008670060518355 -19.236424458222505, 44.60259325967676 -19.140403561325776 C44.9379707997671 -19.063855826343133, 45.27334833985745 -18.987308091360493, 45.82126438623539 -18.862249829261074 C46.092900615856514 -18.78162962215719, 46.36453684547764 -18.701009415053306, 47.019610251460605 -18.50658706670804 C47.350531318901346 -18.384805054889032, 47.68145238634209 -18.263023043070024, 48.1927065951478 -18.074876768247425 C48.5843891633741 -17.901490514144207, 48.9760717316004 -17.728104260040993, 49.33573291279238 -17.568892924097174 C49.67035448317195 -17.394321065165496, 50.00497605355152 -17.21974920623382, 50.44399226407678 -16.990714730406097 C50.68382090208221 -16.845329200657687, 50.923649540087645 -16.69994367090928, 51.5129305736057 -16.342718045390892 C51.86404062176018 -16.097798875107344, 52.21515066991466 -15.852879704823792, 52.53815534457871 -15.627565626425154 C52.88713629996839 -15.349262601275129, 53.23611725535806 -15.070959576125105, 53.515453708501866 -14.848196188198123 C53.832776336672424 -14.560012173190287, 54.15009896484298 -14.271828158182451, 54.44080973676799 -14.007812326905688 C54.739579682032186 -13.699307828951714, 55.03834962729638 -13.39080333099774, 55.31042094296865 -13.10986736009568 C55.61879846965996 -12.747629570065715, 55.92717599635126 -12.385391780035748, 56.12071390812658 -12.158051136245305 C56.3381298034809 -11.866733643466052, 56.55554569883522 -11.575416150686797, 56.868358964640635 -11.156274872382312 C57.05411671987131 -10.870901077406447, 57.239874475101985 -10.585527282430583, 57.55028387860425 -10.108655082055241 C57.77927318187681 -9.702061386413462, 58.00826248514938 -9.29546769077168, 58.163686474273504 -9.019496659696287 C58.31368470947727 -8.708022114847576, 58.46368294468103 -8.396547569998866, 58.70604614880834 -7.893275190886684 C58.85912838024125 -7.515159119603785, 59.01221061167417 -7.137043048320885, 59.175134229970325 -6.734618561215508 C59.324441847261696 -6.284927806872109, 59.473749464553066 -5.8352370525287105, 59.56902313421488 -5.548287939305138 C59.663344089379414 -5.188601258302215, 59.75766504454395 -4.828914577299292, 59.88609428754556 -4.339158212148133 C59.962551918882305 -3.9465644345600563, 60.03900955021905 -3.55397065697198, 60.125044776581774 -3.1121979531509023 C60.17243759676596 -2.7446285985732857, 60.21983041695014 -2.3770592439956695, 60.28489270250937 -1.872449005199798 C60.31548005653741 -1.3960262765452833, 60.346067410565446 -0.9196035478907686, 60.36498121591342 -0.6250057626472757 C60.36498121591342 -0.14090019329615117, 60.36498121591342 0.34320537605497337, 60.36498121591342 0.625005762647271 C60.339122585776835 1.0277747997351485, 60.313263955640245 1.430543836823026, 60.28489270250937 1.8724490051997846 C60.22163057090759 2.363097605382227, 60.158368439305825 2.853746205564669, 60.125044776581774 3.1121979531508885 C60.066581102464376 3.412396563441826, 60.00811742834698 3.7125951737327636, 59.88609428754556 4.339158212148129 C59.786957844957406 4.717208433742769, 59.68782140236925 5.09525865533741, 59.56902313421489 5.548287939305125 C59.473458835956286 5.836112379556846, 59.377894537697685 6.123936819808568, 59.175134229970325 6.734618561215495 C59.03598220641241 7.0783267497249005, 58.896830182854494 7.422034938234306, 58.70604614880834 7.893275190886679 C58.566276179202625 8.183510523371211, 58.42650620959691 8.473745855855745, 58.163686474273504 9.019496659696284 C57.95724661280945 9.38605153802847, 57.750806751345394 9.752606416360655, 57.55028387860425 10.108655082055236 C57.338387946586614 10.434184135659102, 57.12649201456898 10.759713189262968, 56.86835896464064 11.156274872382301 C56.696840158415974 11.386094447038655, 56.52532135219131 11.615914021695009, 56.12071390812658 12.158051136245302 C55.86712242662447 12.455934120181762, 55.61353094512235 12.753817104118223, 55.31042094296866 13.10986736009567 C54.97643298333575 13.454737349338098, 54.642445023702834 13.799607338580525, 54.44080973676799 14.007812326905684 C54.203337186022225 14.223478614313601, 53.96586463527647 14.439144901721516, 53.51545370850189 14.848196188198111 C53.294592711713115 15.0243269557792, 53.073731714924335 15.200457723360289, 52.53815534457871 15.627565626425152 C52.14497288956217 15.90183268645054, 51.751790434545626 16.176099746475927, 51.51293057360571 16.34271804539089 C51.10583653067229 16.589500846567265, 50.69874248773888 16.83628364774364, 50.44399226407678 16.990714730406093 C50.08493695803656 17.17803365358138, 49.72588165199633 17.365352576756667, 49.33573291279239 17.56889292409717 C49.03049470537303 17.704012823952006, 48.72525649795367 17.83913272380684, 48.192706595147804 18.07487676824742 C47.898901861298334 18.182999626205216, 47.60509712744886 18.291122484163008, 47.01961025146062 18.506587066708033 C46.60575708985388 18.629416512713338, 46.19190392824714 18.752245958718646, 45.82126438623541 18.86224982926107 C45.371138558679306 18.964988112055217, 44.9210127311232 19.067726394849366, 44.602593259676766 19.140403561325773 C44.22453464130424 19.201525146855868, 43.84647602293172 19.262646732385967, 43.36860465284788 19.3399052695533 C43.04983072210059 19.370657007270747, 42.731056791353296 19.401408744988196, 42.1243692896239 19.45993515863156 C41.79873051693752 19.47037776025419, 41.47309174425114 19.480820361876823, 40.87500000000001 19.5 C40.87500000000001 19.5, 40.875 19.5, 40.875 19.5 C16.99907766281193 19.5, -6.876844674376137 19.5, -40.87499999999999 19.5 C-41.32502392785438 19.485568608552146, -41.77504785570877 19.471137217104292, -42.12436928962389 19.45993515863156 C-42.52276880075822 19.421502036937945, -42.92116831189255 19.38306891524433, -43.36860465284787 19.3399052695533 C-43.631370250341256 19.29742336552821, -43.89413584783464 19.254941461503122, -44.60259325967676 19.140403561325773 C-45.07864940410335 19.031746852917067, -45.55470554852995 18.92309014450836, -45.821264386235384 18.862249829261074 C-46.0862939823748 18.783590436295636, -46.35132357851421 18.7049310433302, -47.01961025146059 18.506587066708043 C-47.37401684647999 18.376162163642253, -47.72842344149939 18.245737260576465, -48.1927065951478 18.074876768247425 C-48.64885709745899 17.87295247209814, -49.10500759977019 17.671028175948862, -49.33573291279238 17.568892924097174 C-49.564699387879145 17.449441260704436, -49.79366586296591 17.329989597311698, -50.44399226407678 16.990714730406097 C-50.806740413969166 16.770814670196586, -51.16948856386154 16.550914609987075, -51.512930573605686 16.3427180453909 C-51.76439341536544 16.16730845263027, -52.0158562571252 15.991898859869638, -52.53815534457871 15.627565626425156 C-52.735144344313206 15.470472141234335, -52.9321333440477 15.313378656043513, -53.515453708501866 14.848196188198125 C-53.746631626052626 14.638246520111045, -53.977809543603385 14.428296852023962, -54.440809736767974 14.007812326905697 C-54.72254837415199 13.716894052634393, -55.00428701153601 13.425975778363087, -55.310420942968655 13.109867360095677 C-55.498541359989645 12.888890413907856, -55.68666177701063 12.667913467720034, -56.120713908126575 12.158051136245307 C-56.3552766207073 11.843758470489858, -56.589839333288026 11.529465804734407, -56.868358964640635 11.156274872382316 C-57.079378187321396 10.832092679749302, -57.290397410002164 10.507910487116288, -57.55028387860425 10.108655082055249 C-57.738157988438026 9.77506557572883, -57.926032098271804 9.441476069402412, -58.163686474273504 9.019496659696289 C-58.3472623450348 8.638297436166063, -58.53083821579609 8.257098212635839, -58.70604614880834 7.893275190886686 C-58.87336905717303 7.4799843722575385, -59.040691965537725 7.06669355362839, -59.175134229970325 6.73461856121551 C-59.29124972372458 6.3848971945192, -59.40736521747884 6.035175827822891, -59.56902313421488 5.5482879393051325 C-59.68615596779255 5.101609679182266, -59.80328880137023 4.654931419059399, -59.88609428754556 4.339158212148136 C-59.938418701340545 4.070483406079646, -59.99074311513554 3.8018086000111553, -60.125044776581774 3.112197953150904 C-60.17526918506006 2.722667358924562, -60.22549359353835 2.33313676469822, -60.28489270250937 1.872449005199809 C-60.3043657094315 1.5691412040593207, -60.323838716353634 1.265833402918832, -60.36498121591342 0.6250057626472781 C-60.36498121591342 0.23347380960225184, -60.36498121591342 -0.15805814344277447, -60.36498121591342 -0.6250057626472687 C-60.339004895624655 -1.0296079188530336, -60.3130285753359 -1.4342100750587985, -60.28489270250937 -1.8724490051997822 C-60.2447698143153 -2.1836342028725193, -60.204646926121235 -2.494819400545256, -60.125044776581774 -3.112197953150895 C-60.03272653081198 -3.586232633710647, -59.94040828504218 -4.060267314270399, -59.88609428754556 -4.339158212148126 C-59.78764058726443 -4.714604841423709, -59.68918688698329 -5.090051470699291, -59.56902313421489 -5.548287939305123 C-59.429916778706996 -5.967254118507024, -59.2908104231991 -6.386220297708927, -59.17513422997033 -6.734618561215485 C-59.02915596878432 -7.095187688642612, -58.88317770759831 -7.45575681606974, -58.70604614880834 -7.893275190886676 C-58.52593836210358 -8.267272863668397, -58.34583057539882 -8.641270536450119, -58.163686474273504 -9.019496659696282 C-57.918679683409344 -9.454531026503432, -57.67367289254519 -9.889565393310583, -57.55028387860425 -10.108655082055243 C-57.34169202346614 -10.429108186303287, -57.133100168328035 -10.74956129055133, -56.86835896464064 -11.156274872382308 C-56.678354474314546 -11.410863579654112, -56.488349983988456 -11.665452286925914, -56.12071390812659 -12.158051136245302 C-55.887002124822615 -12.43258229549135, -55.65329034151864 -12.707113454737398, -55.31042094296866 -13.10986736009567 C-54.99622915580019 -13.434296175972582, -54.682037368631704 -13.758724991849494, -54.440809736767996 -14.007812326905677 C-54.10830776296084 -14.309781821997195, -53.775805789153694 -14.611751317088713, -53.51545370850189 -14.848196188198107 C-53.22685112884015 -15.078349065441156, -52.93824854917842 -15.308501942684202, -52.53815534457872 -15.627565626425149 C-52.18281142648636 -15.875438161096088, -51.82746750839401 -16.123310695767028, -51.512930573605715 -16.342718045390885 C-51.292360399352425 -16.47642898123745, -51.071790225099136 -16.610139917084012, -50.44399226407679 -16.99071473040609 C-50.09290836346158 -17.173874976477073, -49.741824462846374 -17.357035222548056, -49.33573291279239 -17.56889292409717 C-48.983098375760925 -17.72499377310912, -48.63046383872946 -17.881094622121072, -48.192706595147804 -18.07487676824742 C-47.93218380929079 -18.170751561689034, -47.67166102343377 -18.26662635513065, -47.01961025146062 -18.506587066708033 C-46.649462878503876 -18.616444864058387, -46.27931550554713 -18.726302661408738, -45.82126438623541 -18.862249829261067 C-45.37403998938826 -18.964325879429502, -44.926815592541104 -19.066401929597937, -44.602593259676766 -19.140403561325773 C-44.28392109466986 -19.19192400562454, -43.965248929662955 -19.24344444992331, -43.36860465284788 -19.3399052695533 C-43.01942630612278 -19.373590084713467, -42.67024795939769 -19.407274899873634, -42.1243692896239 -19.45993515863156 C-41.85057845573456 -19.46871509777286, -41.576787621845234 -19.477495036914164, -40.87500000000001 -19.5 C-40.87500000000001 -19.5, -40.875 -19.5, -40.875 -19.5" stroke="none" stroke-width="0" fill="#F3E8FF" style="fill:#F3E8FF !important;stroke:#7C3AED !important;stroke-width:1.5px !important"/><path d="M-40.875 -19.5 C-9.01696707189042 -19.5, 22.84106585621916 -19.5, 40.875 -19.5 M-40.875 -19.5 C-8.379689957138098 -19.5, 24.115620085723805 -19.5, 40.875 -19.5 M40.875 -19.5 C40.875 -19.5, 40.875 -19.5, 40.875 -19.5 M40.875 -19.5 C40.875 -19.5, 40.875 -19.5, 40.875 -19.5 M40.875 -19.5 C41.353382697023115 -19.4846591980219, 41.83176539404623 -19.469318396043803, 42.1243692896239 -19.45993515863156 M40.875 -19.5 C41.350085992579096 -19.484764916916774, 41.82517198515819 -19.46952983383355, 42.1243692896239 -19.45993515863156 M42.1243692896239 -19.45993515863156 C42.48753104847803 -19.424901380520815, 42.85069280733217 -19.389867602410074, 43.368604652847864 -19.3399052695533 M42.1243692896239 -19.45993515863156 C42.56715421033949 -19.417220229856905, 43.00993913105507 -19.374505301082248, 43.368604652847864 -19.3399052695533 M43.368604652847864 -19.3399052695533 C43.662111739598146 -19.292453319948965, 43.955618826348434 -19.24500137034463, 44.60259325967676 -19.140403561325776 M43.368604652847864 -19.3399052695533 C43.835855968145864 -19.264363700483987, 44.30310728344387 -19.188822131414675, 44.60259325967676 -19.140403561325776 M44.60259325967676 -19.140403561325776 C44.874537654969195 -19.078334027703303, 45.14648205026163 -19.01626449408083, 45.82126438623539 -18.862249829261074 M44.60259325967676 -19.140403561325776 C45.07433227356111 -19.03273220979143, 45.54607128744546 -18.92506085825708, 45.82126438623539 -18.862249829261074 M45.82126438623539 -18.862249829261074 C46.22872635470891 -18.741317255829653, 46.636188323182424 -18.62038468239823, 47.019610251460605 -18.50658706670804 M45.82126438623539 -18.862249829261074 C46.08140059404406 -18.78504276826628, 46.341536801852726 -18.70783570727149, 47.019610251460605 -18.50658706670804 M47.019610251460605 -18.50658706670804 C47.39457079501583 -18.368598120582448, 47.769531338571056 -18.230609174456855, 48.1927065951478 -18.074876768247425 M47.019610251460605 -18.50658706670804 C47.268600219540225 -18.414956456816707, 47.51759018761984 -18.323325846925375, 48.1927065951478 -18.074876768247425 M48.1927065951478 -18.074876768247425 C48.5344145188597 -17.923612806825574, 48.8761224425716 -17.772348845403727, 49.33573291279238 -17.568892924097174 M48.1927065951478 -18.074876768247425 C48.54744162043039 -17.91784609539547, 48.902176645712984 -17.760815422543512, 49.33573291279238 -17.568892924097174 M49.33573291279238 -17.568892924097174 C49.770064670893895 -17.342302324098384, 50.2043964289954 -17.115711724099594, 50.44399226407678 -16.990714730406097 M49.33573291279238 -17.568892924097174 C49.77022747690982 -17.34221738830416, 50.20472204102725 -17.115541852511146, 50.44399226407678 -16.990714730406097 M50.44399226407678 -16.990714730406097 C50.8166259930951 -16.76482197403633, 51.18925972211343 -16.538929217666563, 51.5129305736057 -16.342718045390892 M50.44399226407678 -16.990714730406097 C50.6741202581321 -16.85120978802756, 50.904248252187415 -16.711704845649024, 51.5129305736057 -16.342718045390892 M51.5129305736057 -16.342718045390892 C51.90139135473585 -16.071744620670685, 52.289852135866006 -15.800771195950475, 52.53815534457871 -15.627565626425154 M51.5129305736057 -16.342718045390892 C51.87152720343459 -16.092576559820174, 52.23012383326347 -15.842435074249455, 52.53815534457871 -15.627565626425154 M52.53815534457871 -15.627565626425154 C52.77498854027875 -15.438697455250397, 53.01182173597878 -15.249829284075641, 53.515453708501866 -14.848196188198123 M52.53815534457871 -15.627565626425154 C52.9244851519499 -15.319477885714562, 53.31081495932109 -15.01139014500397, 53.515453708501866 -14.848196188198123 M53.515453708501866 -14.848196188198123 C53.72566847775158 -14.65728469674354, 53.9358832470013 -14.466373205288956, 54.44080973676799 -14.007812326905688 M53.515453708501866 -14.848196188198123 C53.86089600791431 -14.534474631774136, 54.20633830732675 -14.220753075350148, 54.44080973676799 -14.007812326905688 M54.44080973676799 -14.007812326905688 C54.68736829106914 -13.75322037675597, 54.9339268453703 -13.49862842660625, 55.31042094296865 -13.10986736009568 M54.44080973676799 -14.007812326905688 C54.704712016850785 -13.73531155594006, 54.96861429693358 -13.462810784974431, 55.31042094296865 -13.10986736009568 M55.31042094296865 -13.10986736009568 C55.563090351798714 -12.813067495187235, 55.81575976062878 -12.51626763027879, 56.12071390812658 -12.158051136245305 M55.31042094296865 -13.10986736009568 C55.500657642409784 -12.886404508157273, 55.69089434185092 -12.662941656218868, 56.12071390812658 -12.158051136245305 M56.12071390812658 -12.158051136245305 C56.41965318635639 -11.757499737345855, 56.71859246458621 -11.356948338446406, 56.868358964640635 -11.156274872382312 M56.12071390812658 -12.158051136245305 C56.28904957996139 -11.932496671681848, 56.457385251796204 -11.706942207118392, 56.868358964640635 -11.156274872382312 M56.868358964640635 -11.156274872382312 C57.08733652575888 -10.819866534796233, 57.30631408687712 -10.483458197210155, 57.55028387860425 -10.108655082055241 M56.868358964640635 -11.156274872382312 C57.03750036520992 -10.89642826028232, 57.20664176577921 -10.63658164818233, 57.55028387860425 -10.108655082055241 M57.55028387860425 -10.108655082055241 C57.77462441466803 -9.710315743331375, 57.99896495073182 -9.31197640460751, 58.163686474273504 -9.019496659696287 M57.55028387860425 -10.108655082055241 C57.76536761944826 -9.726752120596242, 57.98045136029227 -9.34484915913724, 58.163686474273504 -9.019496659696287 M58.163686474273504 -9.019496659696287 C58.281942139752026 -8.773936240064241, 58.40019780523054 -8.528375820432194, 58.70604614880834 -7.893275190886684 M58.163686474273504 -9.019496659696287 C58.360657610821725 -8.610481880146732, 58.55762874736995 -8.201467100597176, 58.70604614880834 -7.893275190886684 M58.70604614880834 -7.893275190886684 C58.833922169409256 -7.577418947687748, 58.96179819001018 -7.261562704488812, 59.175134229970325 -6.734618561215508 M58.70604614880834 -7.893275190886684 C58.8359919568768 -7.572306532626301, 58.96593776494526 -7.251337874365917, 59.175134229970325 -6.734618561215508 M59.175134229970325 -6.734618561215508 C59.31493218877073 -6.313569383088586, 59.454730147571134 -5.892520204961664, 59.56902313421488 -5.548287939305138 M59.175134229970325 -6.734618561215508 C59.3150645958604 -6.313170594030703, 59.45499496175047 -5.891722626845898, 59.56902313421488 -5.548287939305138 M59.56902313421488 -5.548287939305138 C59.63247092721001 -5.306334006167282, 59.695918720205135 -5.064380073029427, 59.88609428754556 -4.339158212148133 M59.56902313421488 -5.548287939305138 C59.65981001712923 -5.202078207468776, 59.750596900043575 -4.855868475632414, 59.88609428754556 -4.339158212148133 M59.88609428754556 -4.339158212148133 C59.94328005813245 -4.045521366401324, 60.00046582871935 -3.751884520654515, 60.125044776581774 -3.1121979531509023 M59.88609428754556 -4.339158212148133 C59.946105258512986 -4.0310145595536095, 60.00611622948041 -3.7228709069590864, 60.125044776581774 -3.1121979531509023 M60.125044776581774 -3.1121979531509023 C60.18275263229774 -2.6646272199229366, 60.2404604880137 -2.2170564866949714, 60.28489270250937 -1.872449005199798 M60.125044776581774 -3.1121979531509023 C60.17469278413871 -2.7271378106472923, 60.22434079169565 -2.3420776681436823, 60.28489270250937 -1.872449005199798 M60.28489270250937 -1.872449005199798 C60.31142025813392 -1.4592609136898471, 60.33794781375848 -1.0460728221798963, 60.36498121591342 -0.6250057626472757 M60.28489270250937 -1.872449005199798 C60.31055233043885 -1.4727795881191468, 60.336211958368345 -1.0731101710384956, 60.36498121591342 -0.6250057626472757 M60.36498121591342 -0.6250057626472757 C60.36498121591342 -0.35687420283180604, 60.36498121591342 -0.08874264301633639, 60.36498121591342 0.625005762647271 M60.36498121591342 -0.6250057626472757 C60.36498121591342 -0.2677917686845655, 60.36498121591342 0.0894222252781447, 60.36498121591342 0.625005762647271 M60.36498121591342 0.625005762647271 C60.339385353787094 1.023681975872786, 60.31378949166077 1.4223581890983006, 60.28489270250937 1.8724490051997846 M60.36498121591342 0.625005762647271 C60.34811208997003 0.8877560157289384, 60.331242964026636 1.1505062688106058, 60.28489270250937 1.8724490051997846 M60.28489270250937 1.8724490051997846 C60.22657232921712 2.3247703037940948, 60.16825195592488 2.7770916023884054, 60.125044776581774 3.1121979531508885 M60.28489270250937 1.8724490051997846 C60.237928890740854 2.2366910552227925, 60.19096507897233 2.600933105245801, 60.125044776581774 3.1121979531508885 M60.125044776581774 3.1121979531508885 C60.07651457368594 3.361390288158993, 60.0279843707901 3.610582623167098, 59.88609428754556 4.339158212148129 M60.125044776581774 3.1121979531508885 C60.06311297367031 3.430204671810105, 60.001181170758834 3.7482113904693217, 59.88609428754556 4.339158212148129 M59.88609428754556 4.339158212148129 C59.80918052340938 4.632463729435628, 59.7322667592732 4.925769246723127, 59.56902313421489 5.548287939305125 M59.88609428754556 4.339158212148129 C59.79994166553411 4.667695498660389, 59.713789043522645 4.996232785172648, 59.56902313421489 5.548287939305125 M59.56902313421489 5.548287939305125 C59.42441240110821 5.983832426831083, 59.27980166800153 6.419376914357041, 59.175134229970325 6.734618561215495 M59.56902313421489 5.548287939305125 C59.420525856789645 5.995538079081867, 59.272028579364395 6.442788218858609, 59.175134229970325 6.734618561215495 M59.175134229970325 6.734618561215495 C58.99907179209534 7.169496186702364, 58.82300935422037 7.604373812189234, 58.70604614880834 7.893275190886679 M59.175134229970325 6.734618561215495 C59.05859161870682 7.022481064234455, 58.942049007443316 7.3103435672534145, 58.70604614880834 7.893275190886679 M58.70604614880834 7.893275190886679 C58.56031123044453 8.195896867096852, 58.414576312080726 8.498518543307027, 58.163686474273504 9.019496659696284 M58.70604614880834 7.893275190886679 C58.56287780813832 8.190567313599736, 58.4197094674683 8.487859436312794, 58.163686474273504 9.019496659696284 M58.163686474273504 9.019496659696284 C58.03716589273413 9.244146763817563, 57.910645311194756 9.468796867938844, 57.55028387860425 10.108655082055236 M58.163686474273504 9.019496659696284 C57.96131994924032 9.37881891672542, 57.758953424207135 9.738141173754558, 57.55028387860425 10.108655082055236 M57.55028387860425 10.108655082055236 C57.35488907518854 10.408833970953092, 57.159494271772836 10.709012859850947, 56.86835896464064 11.156274872382301 M57.55028387860425 10.108655082055236 C57.337578685271794 10.43542737835576, 57.12487349193934 10.762199674656284, 56.86835896464064 11.156274872382301 M56.86835896464064 11.156274872382301 C56.59977738451167 11.51614972146982, 56.33119580438269 11.876024570557338, 56.12071390812658 12.158051136245302 M56.86835896464064 11.156274872382301 C56.713000154400156 11.364441524625775, 56.55764134415967 11.572608176869249, 56.12071390812658 12.158051136245302 M56.12071390812658 12.158051136245302 C55.906211165914456 12.410018262799465, 55.69170842370233 12.661985389353628, 55.31042094296866 13.10986736009567 M56.12071390812658 12.158051136245302 C55.94101335082384 12.369137636104481, 55.7613127935211 12.580224135963663, 55.31042094296866 13.10986736009567 M55.31042094296866 13.10986736009567 C55.037779173864024 13.39139237100174, 54.76513740475939 13.67291738190781, 54.44080973676799 14.007812326905684 M55.31042094296866 13.10986736009567 C54.98152260655465 13.44948189549875, 54.65262427014063 13.789096430901829, 54.44080973676799 14.007812326905684 M54.44080973676799 14.007812326905684 C54.11689845213269 14.301979985388511, 53.79298716749738 14.596147643871337, 53.51545370850189 14.848196188198111 M54.44080973676799 14.007812326905684 C54.2518502695986 14.179420315395395, 54.0628908024292 14.351028303885107, 53.51545370850189 14.848196188198111 M53.51545370850189 14.848196188198111 C53.16598170430302 15.126890811706106, 52.816509700104156 15.4055854352141, 52.53815534457871 15.627565626425152 M53.51545370850189 14.848196188198111 C53.16263191234099 15.12956218165412, 52.80981011618009 15.410928175110126, 52.53815534457871 15.627565626425152 M52.53815534457871 15.627565626425152 C52.202452291292865 15.861737544046404, 51.86674923800702 16.095909461667656, 51.51293057360571 16.34271804539089 M52.53815534457871 15.627565626425152 C52.258316721937575 15.822768935560882, 51.97847809929643 16.01797224469661, 51.51293057360571 16.34271804539089 M51.51293057360571 16.34271804539089 C51.29733573805916 16.47341290167509, 51.08174090251262 16.60410775795929, 50.44399226407678 16.990714730406093 M51.51293057360571 16.34271804539089 C51.15959818896793 16.556910213369882, 50.80626580433014 16.771102381348875, 50.44399226407678 16.990714730406093 M50.44399226407678 16.990714730406093 C50.1264201214027 17.156391913824496, 49.80884797872863 17.322069097242895, 49.33573291279239 17.56889292409717 M50.44399226407678 16.990714730406093 C50.01108346097197 17.216562975694554, 49.578174657867145 17.44241122098302, 49.33573291279239 17.56889292409717 M49.33573291279239 17.56889292409717 C49.00827023283295 17.713850938679947, 48.68080755287351 17.85880895326272, 48.192706595147804 18.07487676824742 M49.33573291279239 17.56889292409717 C48.98411715296739 17.72454279066077, 48.632501393142405 17.880192657224367, 48.192706595147804 18.07487676824742 M48.192706595147804 18.07487676824742 C47.79335850651376 18.22184055639801, 47.39401041787972 18.368804344548604, 47.01961025146062 18.506587066708033 M48.192706595147804 18.07487676824742 C47.8376449847589 18.205542723024084, 47.482583374369995 18.336208677800748, 47.01961025146062 18.506587066708033 M47.01961025146062 18.506587066708033 C46.55653534934342 18.644025266926654, 46.09346044722623 18.781463467145276, 45.82126438623541 18.86224982926107 M47.01961025146062 18.506587066708033 C46.747862085199415 18.587240496019128, 46.47611391893821 18.66789392533022, 45.82126438623541 18.86224982926107 M45.82126438623541 18.86224982926107 C45.338142398432346 18.972519270311516, 44.85502041062929 19.082788711361964, 44.602593259676766 19.140403561325773 M45.82126438623541 18.86224982926107 C45.559403573650826 18.922017850932004, 45.29754276106624 18.981785872602938, 44.602593259676766 19.140403561325773 M44.602593259676766 19.140403561325773 C44.28744678440344 19.19135399945055, 43.97230030913012 19.24230443757532, 43.36860465284788 19.3399052695533 M44.602593259676766 19.140403561325773 C44.30467350156738 19.188568917414667, 44.006753743458 19.236734273503565, 43.36860465284788 19.3399052695533 M43.36860465284788 19.3399052695533 C42.88862851101123 19.386207990700516, 42.40865236917457 19.43251071184773, 42.1243692896239 19.45993515863156 M43.36860465284788 19.3399052695533 C42.91192908904221 19.38396021196091, 42.45525352523655 19.428015154368524, 42.1243692896239 19.45993515863156 M42.1243692896239 19.45993515863156 C41.74859067390645 19.471985647428912, 41.372812058189 19.48403613622627, 40.87500000000001 19.5 M42.1243692896239 19.45993515863156 C41.85060820541741 19.468714143758437, 41.57684712121091 19.477493128885314, 40.87500000000001 19.5 M40.87500000000001 19.5 C40.87500000000001 19.5, 40.87500000000001 19.5, 40.875 19.5 M40.87500000000001 19.5 C40.87500000000001 19.5, 40.875 19.5, 40.875 19.5 M40.875 19.5 C15.574672012540479 19.5, -9.725655974919043 19.5, -40.87499999999999 19.5 M40.875 19.5 C10.877973655285597 19.5, -19.119052689428806 19.5, -40.87499999999999 19.5 M-40.87499999999999 19.5 C-41.17876069985193 19.49025898559008, -41.482521399703856 19.480517971180166, -42.12436928962389 19.45993515863156 M-40.87499999999999 19.5 C-41.27408650265882 19.487202072634485, -41.67317300531764 19.47440414526897, -42.12436928962389 19.45993515863156 M-42.12436928962389 19.45993515863156 C-42.46741981865324 19.42684148667472, -42.810470347682596 19.393747814717884, -43.36860465284787 19.3399052695533 M-42.12436928962389 19.45993515863156 C-42.4221198632499 19.431211518891313, -42.71987043687591 19.40248787915107, -43.36860465284787 19.3399052695533 M-43.36860465284787 19.3399052695533 C-43.7326968812014 19.2810416616505, -44.096789109554926 19.222178053747704, -44.60259325967676 19.140403561325773 M-43.36860465284787 19.3399052695533 C-43.793352741238465 19.271235292592927, -44.21810082962905 19.202565315632558, -44.60259325967676 19.140403561325773 M-44.60259325967676 19.140403561325773 C-45.07564317749474 19.03243300452302, -45.548693095312714 18.924462447720273, -45.821264386235384 18.862249829261074 M-44.60259325967676 19.140403561325773 C-45.05596967190445 19.036923353792385, -45.50934608413213 18.933443146259, -45.821264386235384 18.862249829261074 M-45.821264386235384 18.862249829261074 C-46.27632976550372 18.727188813381154, -46.73139514477206 18.59212779750123, -47.01961025146059 18.506587066708043 M-45.821264386235384 18.862249829261074 C-46.27775659102294 18.72676533905661, -46.7342487958105 18.59128084885214, -47.01961025146059 18.506587066708043 M-47.01961025146059 18.506587066708043 C-47.310109733914786 18.39968057181712, -47.60060921636899 18.292774076926197, -48.1927065951478 18.074876768247425 M-47.01961025146059 18.506587066708043 C-47.45258357016329 18.347248883063966, -47.88555688886599 18.187910699419888, -48.1927065951478 18.074876768247425 M-48.1927065951478 18.074876768247425 C-48.613350679022496 17.888670110279502, -49.03399476289719 17.70246345231158, -49.33573291279238 17.568892924097174 M-48.1927065951478 18.074876768247425 C-48.48137493241617 17.947091858380695, -48.77004326968455 17.819306948513965, -49.33573291279238 17.568892924097174 M-49.33573291279238 17.568892924097174 C-49.68522157583207 17.386564912447543, -50.03471023887175 17.204236900797913, -50.44399226407678 16.990714730406097 M-49.33573291279238 17.568892924097174 C-49.64920069637134 17.405356982189733, -49.96266847995029 17.24182104028229, -50.44399226407678 16.990714730406097 M-50.44399226407678 16.990714730406097 C-50.85474593794042 16.741713439453438, -51.26549961180405 16.49271214850078, -51.512930573605686 16.3427180453909 M-50.44399226407678 16.990714730406097 C-50.853375057936034 16.74254447496828, -51.262757851795286 16.494374219530464, -51.512930573605686 16.3427180453909 M-51.512930573605686 16.3427180453909 C-51.82743052209298 16.123336495809507, -52.14193047058028 15.903954946228113, -52.53815534457871 15.627565626425156 M-51.512930573605686 16.3427180453909 C-51.8462407330657 16.110215306915848, -52.17955089252572 15.877712568440794, -52.53815534457871 15.627565626425156 M-52.53815534457871 15.627565626425156 C-52.89202731147287 15.345362149755585, -53.245899278367034 15.063158673086015, -53.515453708501866 14.848196188198125 M-52.53815534457871 15.627565626425156 C-52.81440604648313 15.407263042996295, -53.09065674838755 15.186960459567432, -53.515453708501866 14.848196188198125 M-53.515453708501866 14.848196188198125 C-53.793127643518105 14.596020067266103, -54.07080157853434 14.343843946334083, -54.440809736767974 14.007812326905697 M-53.515453708501866 14.848196188198125 C-53.756212483136046 14.62954543920347, -53.99697125777022 14.410894690208815, -54.440809736767974 14.007812326905697 M-54.440809736767974 14.007812326905697 C-54.783573931365325 13.653880154520202, -55.12633812596267 13.299947982134706, -55.310420942968655 13.109867360095677 M-54.440809736767974 14.007812326905697 C-54.65902858528022 13.782483449716148, -54.87724743379246 13.557154572526601, -55.310420942968655 13.109867360095677 M-55.310420942968655 13.109867360095677 C-55.499586019349586 12.887663297580866, -55.68875109573051 12.665459235066054, -56.120713908126575 12.158051136245307 M-55.310420942968655 13.109867360095677 C-55.514570659054215 12.87006148713365, -55.71872037513978 12.630255614171622, -56.120713908126575 12.158051136245307 M-56.120713908126575 12.158051136245307 C-56.28962856943266 11.931720878537371, -56.45854323073874 11.705390620829437, -56.868358964640635 11.156274872382316 M-56.120713908126575 12.158051136245307 C-56.38635872053358 11.802111288360193, -56.65200353294058 11.446171440475078, -56.868358964640635 11.156274872382316 M-56.868358964640635 11.156274872382316 C-57.09053466420514 10.814953335322368, -57.31271036376964 10.473631798262419, -57.55028387860425 10.108655082055249 M-56.868358964640635 11.156274872382316 C-57.10811902485838 10.787939035296992, -57.34787908507614 10.419603198211668, -57.55028387860425 10.108655082055249 M-57.55028387860425 10.108655082055249 C-57.754052377346724 9.746843478740029, -57.9578208760892 9.38503187542481, -58.163686474273504 9.019496659696289 M-57.55028387860425 10.108655082055249 C-57.70273042775127 9.837970797157686, -57.8551769768983 9.567286512260123, -58.163686474273504 9.019496659696289 M-58.163686474273504 9.019496659696289 C-58.3677607591749 8.595732040608338, -58.571835044076295 8.171967421520389, -58.70604614880834 7.893275190886686 M-58.163686474273504 9.019496659696289 C-58.30647294432036 8.722997499502952, -58.44925941436722 8.426498339309614, -58.70604614880834 7.893275190886686 M-58.70604614880834 7.893275190886686 C-58.87876970270051 7.466644673390292, -59.05149325659268 7.040014155893898, -59.175134229970325 6.73461856121551 M-58.70604614880834 7.893275190886686 C-58.856596706957674 7.521412401560797, -59.007147265107015 7.149549612234908, -59.175134229970325 6.73461856121551 M-59.175134229970325 6.73461856121551 C-59.31318448358095 6.318833192661207, -59.45123473719157 5.9030478241069035, -59.56902313421488 5.5482879393051325 M-59.175134229970325 6.73461856121551 C-59.27235800350753 6.441796045826113, -59.36958177704473 6.148973530436716, -59.56902313421488 5.5482879393051325 M-59.56902313421488 5.5482879393051325 C-59.65049629399441 5.237595470374981, -59.731969453773935 4.926903001444831, -59.88609428754556 4.339158212148136 M-59.56902313421488 5.5482879393051325 C-59.65122810574123 5.234804755015129, -59.733433077267584 4.921321570725126, -59.88609428754556 4.339158212148136 M-59.88609428754556 4.339158212148136 C-59.97940094054307 3.860048269374007, -60.072707593540585 3.3809383265998783, -60.125044776581774 3.112197953150904 M-59.88609428754556 4.339158212148136 C-59.97858082555299 3.864259386516731, -60.07106736356041 3.3893605608853266, -60.125044776581774 3.112197953150904 M-60.125044776581774 3.112197953150904 C-60.180662261295296 2.680839724627441, -60.23627974600882 2.2494814961039777, -60.28489270250937 1.872449005199809 M-60.125044776581774 3.112197953150904 C-60.18488406222976 2.6480962702685993, -60.24472334787776 2.1839945873862945, -60.28489270250937 1.872449005199809 M-60.28489270250937 1.872449005199809 C-60.31048121021614 1.4738873429951358, -60.33606971792292 1.0753256807904625, -60.36498121591342 0.6250057626472781 M-60.28489270250937 1.872449005199809 C-60.30171947983922 1.6103583659571348, -60.318546257169075 1.3482677267144605, -60.36498121591342 0.6250057626472781 M-60.36498121591342 0.6250057626472781 C-60.36498121591342 0.2170837160827151, -60.36498121591342 -0.19083833048184795, -60.36498121591342 -0.6250057626472687 M-60.36498121591342 0.6250057626472781 C-60.36498121591342 0.23297330922060255, -60.36498121591342 -0.15905914420607303, -60.36498121591342 -0.6250057626472687 M-60.36498121591342 -0.6250057626472687 C-60.34812415823431 -0.8875680427713859, -60.33126710055521 -1.150130322895503, -60.28489270250937 -1.8724490051997822 M-60.36498121591342 -0.6250057626472687 C-60.346440050622796 -0.9137993782078837, -60.32789888533218 -1.2025929937684987, -60.28489270250937 -1.8724490051997822 M-60.28489270250937 -1.8724490051997822 C-60.222216039338775 -2.3585568278438056, -60.15953937616818 -2.8446646504878292, -60.125044776581774 -3.112197953150895 M-60.28489270250937 -1.8724490051997822 C-60.24482779566264 -2.1831845109922887, -60.20476288881591 -2.4939200167847955, -60.125044776581774 -3.112197953150895 M-60.125044776581774 -3.112197953150895 C-60.0734704612456 -3.3770211621667445, -60.02189614590942 -3.641844371182594, -59.88609428754556 -4.339158212148126 M-60.125044776581774 -3.112197953150895 C-60.060963876562724 -3.441239831245706, -59.996882976543674 -3.7702817093405168, -59.88609428754556 -4.339158212148126 M-59.88609428754556 -4.339158212148126 C-59.783850651162204 -4.729057510350185, -59.68160701477885 -5.1189568085522446, -59.56902313421489 -5.548287939305123 M-59.88609428754556 -4.339158212148126 C-59.82144274880603 -4.585702549516113, -59.75679121006649 -4.8322468868841, -59.56902313421489 -5.548287939305123 M-59.56902313421489 -5.548287939305123 C-59.42078563086264 -5.994755680963374, -59.2725481275104 -6.441223422621626, -59.17513422997033 -6.734618561215485 M-59.56902313421489 -5.548287939305123 C-59.46180765426673 -5.871203882442087, -59.35459217431857 -6.194119825579052, -59.17513422997033 -6.734618561215485 M-59.17513422997033 -6.734618561215485 C-59.01777270429639 -7.123304572008244, -58.86041117862245 -7.511990582801005, -58.70604614880834 -7.893275190886676 M-59.17513422997033 -6.734618561215485 C-59.04887331672979 -7.046485458008311, -58.92261240348925 -7.358352354801138, -58.70604614880834 -7.893275190886676 M-58.70604614880834 -7.893275190886676 C-58.550354256518176 -8.21657273650004, -58.39466236422801 -8.539870282113405, -58.163686474273504 -9.019496659696282 M-58.70604614880834 -7.893275190886676 C-58.53492794842739 -8.248605795320678, -58.363809748046435 -8.603936399754678, -58.163686474273504 -9.019496659696282 M-58.163686474273504 -9.019496659696282 C-57.92464780416905 -9.443934023756825, -57.68560913406459 -9.868371387817367, -57.55028387860425 -10.108655082055243 M-58.163686474273504 -9.019496659696282 C-57.93972261669643 -9.417167167624157, -57.71575875911936 -9.814837675552033, -57.55028387860425 -10.108655082055243 M-57.55028387860425 -10.108655082055243 C-57.28504409168165 -10.516134621623841, -57.019804304759056 -10.92361416119244, -56.86835896464064 -11.156274872382308 M-57.55028387860425 -10.108655082055243 C-57.2919505346701 -10.505524470553967, -57.03361719073595 -10.90239385905269, -56.86835896464064 -11.156274872382308 M-56.86835896464064 -11.156274872382308 C-56.67306923944134 -11.417945312889412, -56.47777951424203 -11.679615753396515, -56.12071390812659 -12.158051136245302 M-56.86835896464064 -11.156274872382308 C-56.589885714284605 -11.529403658424394, -56.31141246392857 -11.90253244446648, -56.12071390812659 -12.158051136245302 M-56.12071390812659 -12.158051136245302 C-55.85217258306091 -12.473495057101715, -55.583631257995236 -12.788938977958129, -55.31042094296866 -13.10986736009567 M-56.12071390812659 -12.158051136245302 C-55.83410265849262 -12.494721018707473, -55.54749140885864 -12.831390901169645, -55.31042094296866 -13.10986736009567 M-55.31042094296866 -13.10986736009567 C-55.09468246684938 -13.33263504914713, -54.878943990730086 -13.555402738198591, -54.440809736767996 -14.007812326905677 M-55.31042094296866 -13.10986736009567 C-55.09737212972348 -13.32985775140419, -54.884323316478294 -13.549848142712708, -54.440809736767996 -14.007812326905677 M-54.440809736767996 -14.007812326905677 C-54.11388800240343 -14.304713996180482, -53.78696626803887 -14.601615665455288, -53.51545370850189 -14.848196188198107 M-54.440809736767996 -14.007812326905677 C-54.13242794717111 -14.287876508882537, -53.824046157574216 -14.567940690859395, -53.51545370850189 -14.848196188198107 M-53.51545370850189 -14.848196188198107 C-53.13470328729783 -15.151834516914109, -52.753952866093776 -15.455472845630112, -52.53815534457872 -15.627565626425149 M-53.51545370850189 -14.848196188198107 C-53.156130108431725 -15.134747197251489, -52.796806508361556 -15.42129820630487, -52.53815534457872 -15.627565626425149 M-52.53815534457872 -15.627565626425149 C-52.21650492403879 -15.851935035771518, -51.894854503498856 -16.076304445117888, -51.512930573605715 -16.342718045390885 M-52.53815534457872 -15.627565626425149 C-52.30257725217571 -15.791894705674235, -52.06699915977269 -15.95622378492332, -51.512930573605715 -16.342718045390885 M-51.512930573605715 -16.342718045390885 C-51.2065824239321 -16.528428094024587, -50.90023427425848 -16.714138142658292, -50.44399226407679 -16.99071473040609 M-51.512930573605715 -16.342718045390885 C-51.19918345326799 -16.532913393522346, -50.885436332930276 -16.723108741653807, -50.44399226407679 -16.99071473040609 M-50.44399226407679 -16.99071473040609 C-50.15126268075276 -17.143431566523994, -49.85853309742872 -17.296148402641894, -49.33573291279239 -17.56889292409717 M-50.44399226407679 -16.99071473040609 C-50.06560101199479 -17.18812120424611, -49.68720975991278 -17.385527678086124, -49.33573291279239 -17.56889292409717 M-49.33573291279239 -17.56889292409717 C-48.909011680277466 -17.75778975549591, -48.48229044776255 -17.94668658689465, -48.192706595147804 -18.07487676824742 M-49.33573291279239 -17.56889292409717 C-49.01703082247452 -17.70997288551928, -48.69832873215665 -17.851052846941393, -48.192706595147804 -18.07487676824742 M-48.192706595147804 -18.07487676824742 C-47.79952880253326 -18.219569830425247, -47.40635100991872 -18.36426289260307, -47.01961025146062 -18.506587066708033 M-48.192706595147804 -18.07487676824742 C-47.7398854102177 -18.241519150134845, -47.2870642252876 -18.408161532022273, -47.01961025146062 -18.506587066708033 M-47.01961025146062 -18.506587066708033 C-46.75056515687333 -18.58643823853502, -46.48152006228604 -18.66628941036201, -45.82126438623541 -18.862249829261067 M-47.01961025146062 -18.506587066708033 C-46.609889575805035 -18.628190012574894, -46.20016890014946 -18.74979295844176, -45.82126438623541 -18.862249829261067 M-45.82126438623541 -18.862249829261067 C-45.465038648393595 -18.94355602933328, -45.10881291055178 -19.02486222940549, -44.602593259676766 -19.140403561325773 M-45.82126438623541 -18.862249829261067 C-45.38694627071471 -18.961380104938097, -44.952628155194006 -19.060510380615124, -44.602593259676766 -19.140403561325773 M-44.602593259676766 -19.140403561325773 C-44.34751095984413 -19.181643289369934, -44.09242866001149 -19.222883017414095, -43.36860465284788 -19.3399052695533 M-44.602593259676766 -19.140403561325773 C-44.24105557928594 -19.198854169724775, -43.87951789889512 -19.25730477812378, -43.36860465284788 -19.3399052695533 M-43.36860465284788 -19.3399052695533 C-43.03750674797712 -19.37184588623269, -42.70640884310635 -19.403786502912084, -42.1243692896239 -19.45993515863156 M-43.36860465284788 -19.3399052695533 C-43.11674312884159 -19.364202047866385, -42.86488160483531 -19.38849882617947, -42.1243692896239 -19.45993515863156 M-42.1243692896239 -19.45993515863156 C-41.851947850553955 -19.46867118394637, -41.57952641148401 -19.477407209261177, -40.87500000000001 -19.5 M-42.1243692896239 -19.45993515863156 C-41.652784625482745 -19.4750579609267, -41.181199961341584 -19.490180763221844, -40.87500000000001 -19.5 M-40.87500000000001 -19.5 C-40.87500000000001 -19.5, -40.875 -19.5, -40.875 -19.5 M-40.87500000000001 -19.5 C-40.87500000000001 -19.5, -40.875 -19.5, -40.875 -19.5" stroke="#7C3AED" stroke-width="1.5" fill="none" stroke-dasharray="0 0" style="fill:#F3E8FF !important;stroke:#7C3AED !important;stroke-width:1.5px !important"/></g><g class="label" style="color:#4C1D95 !important" transform="translate(-48, -12)"><rect/><foreignObject width="96" height="24"><div style="color: rgb(76, 29, 149) !important; display: table-cell; white-space: nowrap; line-height: 1.5; max-width: 200px; text-align: center;" xmlns="http://www.w3.org/1999/xhtml"><span style="color:#4C1D95 !important" class="nodeLabel"><p>平台运维人员</p></span></div></foreignObject></g></g><g class="node default platformPod" id="my-svg-flowchart-ControlPlane-3" data-look="classic" transform="translate(239.45592880249023, 375)"><rect class="basic label-container" style="fill:#DBEAFE !important;stroke:#2563EB !important;stroke-width:1.5px !important" rx="5" ry="5" x="-63.5546875" y="-39" width="127.109375" height="78"/><g class="label" style="color:#172554 !important" transform="translate(-48.5546875, -24)"><rect/><foreignObject width="97.109375" height="48"><div style="color: rgb(23, 37, 84) !important; display: table-cell; white-space: nowrap; line-height: 1.5; max-width: 200px; text-align: center;" xmlns="http://www.w3.org/1999/xhtml"><span style="color:#172554 !important" class="nodeLabel"><p>Control Plane<br />节点准入</p></span></div></foreignObject></g></g><g class="node default k8sResource" id="my-svg-flowchart-ResourceView-4" data-look="classic" transform="translate(239.45592880249023, 539)"><rect class="basic label-container" style="fill:#FEF3C7 !important;stroke:#D97706 !important;stroke-width:1.5px !important" x="-128.578125" y="-51" width="257.15625" height="102"/><g class="label" style="color:#78350F !important" transform="translate(-98.578125, -36)"><rect/><foreignObject width="197.15625" height="72"><div style="color: rgb(120, 53, 15) !important; display: table-cell; white-space: nowrap; line-height: 1.5; max-width: 200px; text-align: center;" xmlns="http://www.w3.org/1999/xhtml"><span style="color:#78350F !important" class="nodeLabel"><p>Kubernetes 可部署资源视图<br />仅包含 active 节点<br />容量 · 占用 · 拓扑</p></span></div></foreignObject></g></g></g></g><marker id="my-svg_flowchart-v2-pointEnd__D97706" class="marker flowchart-v2" viewBox="0 0 10 10" refX="5" refY="5" markerUnits="userSpaceOnUse" markerWidth="8" markerHeight="8" orient="auto"><path d="M 0 0 L 10 5 L 0 10 z" class="arrowMarkerPath" style="stroke-width: 1; stroke-dasharray: 1, 0;" stroke="#D97706" fill="#D97706"/></marker></g><defs><filter id="my-svg-drop-shadow" height="130%" width="130%"><feDropShadow dx="4" dy="4" stdDeviation="0" flood-opacity="0.06" flood-color="#000000"/></filter></defs><defs><filter id="my-svg-drop-shadow-small" height="150%" width="150%"><feDropShadow dx="2" dy="2" stdDeviation="0" flood-opacity="0.06" flood-color="#000000"/></filter></defs></svg>